<svg width="35" height="39" viewBox="0 0 35 39" fill="none" xmlns="http://www.w3.org/2000/svg">
<path d="M27 11C29.7614 11 32 8.76142 32 6C32 3.23858 29.7614 1 27 1C24.2386 1 22 3.23858 22 6C22 8.76142 24.2386 11 27 11Z" stroke="white" stroke-width="2" stroke-linecap="round" stroke-linejoin="round"/>
<path d="M27 4V8" stroke="white" stroke-width="2" stroke-linecap="round" stroke-linejoin="round"/>
<path d="M25 6H29" stroke="white" stroke-width="2" stroke-linecap="round" stroke-linejoin="round"/>
<path d="M16.625 9H4.125C3.2962 9 2.50134 9.28446 1.91529 9.79081C1.32924 10.2972 1 10.9839 1 11.7V33.3C1 34.0161 1.32924 34.7028 1.91529 35.2092C2.50134 35.7155 3.2962 36 4.125 36H22.875C23.7038 36 24.4987 35.7155 25.0847 35.2092C25.6708 34.7028 26 34.0161 26 33.3V17.1L16.625 9Z" stroke="white" stroke-width="2" stroke-linecap="round" stroke-linejoin="round"/>
<path d="M16.625 9V17.1H26" stroke="white" stroke-width="2" stroke-linecap="round" stroke-linejoin="round"/>
<path d="M19.75 23.85H7.25" stroke="white" stroke-width="2" stroke-linecap="round" stroke-linejoin="round"/>
<path d="M19.75 29.25H7.25" stroke="white" stroke-width="2" stroke-linecap="round" stroke-linejoin="round"/>
<path d="M10.375 18.45H8.8125H7.25" stroke="white" stroke-width="2" stroke-linecap="round" stroke-linejoin="round"/>
</svg>